<svg xmlns="http://www.w3.org/2000/svg" width="429" height="160" viewBox="0 0 429 160">
  <!-- lmgw lockup, final candidate, with the LOCAL MODEL GATEWAY subtitle, for light backgrounds. Letterforms are glyph outlines (Red Hat Display, OFL-1.1) converted to paths; no text, clipPath or mask. -->
  <g transform="translate(-26.6 -13.8) scale(0.17215)">
    <path d="M224 760V438A288 288 0 0 1 800 438V760H727L664 640.2V438A152 152 0 0 0 360 438V640.2L297 760Z" fill="#23272C"/>
    <path d="M503 420L229.4 940L383.7 940L509 420Z" fill="#A56EF6"/>
    <path d="M510.2 420L426.5 940L597.5 940L513.8 420Z" fill="#3DAEE9"/>
    <path d="M521 420L794.6 940L640.3 940L515 420Z" fill="#2DC9A6"/>
  </g>
  <path d="M137.2 98H152.3V18L137.2 20.5ZM164.2 98H179.3V57.6C181.9 54.1 185.5 52.3 190.1 52.3C196.7 52.3 200.9 57.1 200.9 64.5V98H216.1V62.3C216.1 60.7 215.9 59.4 215.7 58.1C218.4 54.3 222.2 52.3 226.8 52.3C233.4 52.3 237.7 57.1 237.7 64.5V98H252.8V62.3C252.8 48.7 243.7 39.2 230.8 39.2C222.9 39.2 216.5 42.2 211.7 47.9C208 42.5 201.8 39.2 194.4 39.2C188.5 39.2 183.4 41.1 179.3 44.8V40.4H164.2ZM293.4 121.7C311.9 121.7 321.9 113.2 321.9 97.9V40.4H307V44.1C302.5 41.1 297 39.5 291.4 39.5C274.8 39.5 261.8 52.4 261.8 68.8C261.8 85.4 274.7 98.3 291 98.3C296.7 98.3 302.1 96.5 306.8 93.1V97.7C306.8 105.3 302.1 109.2 293.1 109.2C287 109.2 281 107.7 274.7 104.6L269.4 116.4C276.1 119.8 284.5 121.7 293.4 121.7ZM293.3 85.5C283.9 85.5 276.7 78.2 276.7 68.8C276.7 59.6 284 52.4 293.4 52.4C298.7 52.4 303.5 54.4 306.8 57.6V80.2C303.5 83.6 298.8 85.5 293.3 85.5ZM344.8 98H359.5L370.6 61.2L381.8 98H396.3L412.2 40.4H398.1L388.6 77.6L377.2 40.4H364.4L353 77.5L343.4 40.4H329Z" fill="#23272C"/>
  <path d="M138.1 146H145.3V144.4H139.8V136.2H138.1ZM157 146.2C159.9 146.2 162.1 143.9 162.1 141.1C162.1 138.3 159.9 136 157 136C154.1 136 151.8 138.3 151.8 141.1C151.8 143.9 154.1 146.2 157 146.2ZM157 144.5C155.1 144.5 153.6 143 153.6 141.1C153.6 139.1 155.1 137.7 157 137.7C158.9 137.7 160.3 139.1 160.3 141.1C160.3 143 158.9 144.5 157 144.5ZM173.9 146.1C175.4 146.1 176.9 145.5 177.8 144.4L176.7 143.3C176 144.1 175 144.5 173.9 144.5C172 144.5 170.5 143 170.5 141.1C170.5 139.1 171.9 137.7 173.9 137.7C174.9 137.7 176 138.1 176.7 139L177.9 137.8C177 136.7 175.4 136 173.9 136C170.9 136 168.7 138.3 168.7 141.1C168.7 143.9 170.9 146.1 173.9 146.1ZM183.6 146H185.5L186.5 143.3H190.8L191.8 146H193.7L189.7 136.2H187.7ZM187.1 141.9 188.7 137.9 190.2 141.9ZM200.1 146H207.3V144.4H201.8V136.2H200.1ZM222.6 146H224.2V138.4L227.7 145.3L231.3 138.4V146H232.9V136.2H230.6L227.8 142L224.9 136.2H222.6ZM245 146.2C247.9 146.2 250.1 143.9 250.1 141.1C250.1 138.3 247.9 136 245 136C242.1 136 239.8 138.3 239.8 141.1C239.8 143.9 242.1 146.2 245 146.2ZM245 144.5C243.1 144.5 241.6 143 241.6 141.1C241.6 139.1 243.1 137.7 245 137.7C246.9 137.7 248.3 139.1 248.3 141.1C248.3 143 246.9 144.5 245 144.5ZM257.1 146H260.7C263.6 146 265.9 143.9 265.9 141.1C265.9 138.3 263.6 136.2 260.7 136.2H257.1ZM258.8 144.4V137.8H260.7C262.6 137.8 264.1 139.2 264.1 141.1C264.1 143 262.6 144.4 260.7 144.4ZM272.8 146H280.2V144.5H274.6V141.8H278.3V140.3H274.6V137.7H280.2V136.2H272.8ZM287.2 146H294.4V144.4H288.9V136.2H287.2ZM314.4 146.2C317.2 146.2 319.3 144 319.3 141.2V140.6H314.4V142.1H317.4C317.2 143.5 316 144.6 314.4 144.6C312.5 144.6 311.1 143.1 311.1 141.1C311.1 139.1 312.5 137.7 314.4 137.7C315.5 137.7 316.5 138.1 317.2 138.9L318.4 137.8C317.5 136.7 316 136 314.4 136C311.5 136 309.3 138.3 309.3 141.1C309.3 143.9 311.5 146.2 314.4 146.2ZM325.3 146H327.1L328.2 143.3H332.4L333.4 146H335.3L331.3 136.2H329.3ZM328.7 141.9 330.3 137.9 331.8 141.9ZM344.4 146H346.1V137.8H349.5V136.2H341V137.8H344.4ZM356.2 146H363.6V144.5H357.9V141.8H361.6V140.3H357.9V137.7H363.5V136.2H356.2ZM372.2 146H374L376.1 138.7L378.2 146H380L382.2 136.2H380.4L379 143.2L376.9 136.2H375.3L373.2 143.3L371.8 136.2H370ZM388 146H389.8L390.9 143.3H395.1L396.2 146H398.1L394.1 136.2H392ZM391.5 141.9 393 137.9 394.6 141.9ZM407.4 146H409.2V142.2L413.2 136.2H411.3L408.4 140.6L405.5 136.2H403.5L407.4 142.2Z" fill="#5E6A75"/>
</svg>
